<svg width="32" height="32" viewBox="0 0 32 32" fill="none" xmlns="http://www.w3.org/2000/svg">
<path d="M2.22062 19.7177C2.22062 20.0438 2.22062 20.3144 2.22062 20.5848C2.22754 23.8104 2.23339 27.036 2.23815 30.2618C2.24117 30.4912 2.2151 30.7202 2.16059 30.9434C2.03194 31.4372 1.72259 31.6886 1.29482 31.6899C0.867046 31.6913 0.536771 31.4338 0.422007 30.9533C0.360244 30.6613 0.328617 30.3637 0.327612 30.0653C0.137462 23.1319 0.116954 16.1977 0.172111 9.262C0.193014 6.63737 0.0677281 4.01167 0.000837944 1.38664C-0.0161542 0.721218 0.222953 0.390266 0.931364 0.243187C2.33397 -0.0555753 3.78124 -0.0793003 5.19289 0.173346C7.07721 0.49892 8.91203 1.06461 10.6525 1.85651C12.6433 2.77673 14.694 3.50617 16.8791 3.85344C20.2226 4.38514 23.4952 4.0899 26.7427 3.2108C27.8978 2.89818 29.0719 2.65293 30.2433 2.40542C30.5137 2.36537 30.7892 2.37508 31.0562 2.43412C31.2419 2.45944 31.4129 2.54911 31.5393 2.68748C31.6658 2.82585 31.7395 3.00416 31.748 3.19138C31.811 3.71619 31.8802 4.24355 31.8903 4.77092C31.9402 7.37358 32.0186 9.97702 31.996 12.5794C31.9738 15.1583 31.8548 17.7369 31.7533 20.3148C31.7163 21.257 31.2605 21.9473 30.3087 22.1911C28.9044 22.5507 27.4967 22.9011 26.0797 23.2054C22.9604 23.8748 19.8395 23.636 16.7257 23.1438C14.2836 22.7578 11.9293 22.0518 9.61531 21.189C7.51462 20.4059 5.35377 19.8552 3.10379 19.7196C2.83448 19.7037 2.56397 19.7177 2.22062 19.7177ZM30.2519 4.62374C30.1714 4.62757 30.0913 4.63625 30.0119 4.64974C29.2604 4.86814 28.5107 5.09231 27.7582 5.30747C23.5534 6.51011 19.3258 6.73165 15.0546 5.65101C13.2558 5.19589 11.5706 4.46463 9.91254 3.66453C8.18673 2.84107 6.3521 2.26827 4.46426 1.9634C3.64949 1.83451 2.82079 1.81887 2.00173 1.917C2.00173 2.83371 1.98179 3.68195 2.00552 4.52843C2.06877 6.78435 2.1772 9.03928 2.21711 11.2959C2.25177 13.2533 2.2171 15.2119 2.21332 17.17C2.21332 17.4151 2.21332 17.6601 2.21332 17.9519C2.52916 17.9519 2.75492 17.9451 2.98013 17.9533C3.5789 17.9753 4.18146 17.968 4.77524 18.0361C6.79906 18.2682 8.73388 18.8509 10.6499 19.5265C16.2164 21.4896 21.8749 22.2421 27.6885 20.7143C28.4607 20.5115 29.2301 20.2979 30.0017 20.089C30.2995 14.8932 30.0519 9.78401 30.2514 4.62374H30.2519Z" fill="#3A353E"/>
<path d="M30.2514 4.62374C30.171 4.62758 30.0911 4.63628 30.0119 4.64974C29.2604 4.86814 28.5107 5.09231 27.7582 5.30747C23.5534 6.51011 19.3258 6.73165 15.0546 5.65101C13.2558 5.19589 11.5706 4.46463 9.91254 3.66453C8.18673 2.84107 6.3521 2.26827 4.46426 1.9634C3.64949 1.83451 2.82079 1.81887 2.00173 1.917C2.00173 2.83371 1.98179 3.68195 2.00552 4.52843C2.06877 6.78435 2.1772 9.03928 2.21711 11.2959C2.25177 13.2533 2.2171 15.2119 2.21332 17.17V17.9519C2.52916 17.9519 2.75492 17.9451 2.98013 17.9533C3.5789 17.9753 4.18146 17.968 4.77524 18.0361C6.79906 18.2682 8.73388 18.8509 10.6499 19.5265C16.2164 21.4896 21.8749 22.2421 27.6885 20.7143C28.4607 20.5115 29.2301 20.2979 30.0017 20.089C30.2995 14.8932 30.0519 9.78401 30.2514 4.62374Z" fill="#A4E8BC"/>
</svg>
