<svg width="32" height="31" viewBox="0 0 32 31" fill="none" xmlns="http://www.w3.org/2000/svg">
<path d="M1.18375 19.2338C1.29956 19.3126 1.41634 19.3899 1.53991 19.4718L1.64824 19.5437C0.82635 20.3635 0.321834 21.2375 0.106976 22.213C-0.0943053 23.1273 0.168892 23.8979 0.889377 24.5052C0.983991 24.5849 1.07985 24.6629 1.17807 24.7428L1.26742 24.8155C0.721342 25.5379 0.425153 26.2634 0.361846 27.032C0.282885 27.9934 0.617011 28.6849 1.35481 29.0876C1.89895 29.3845 2.4338 29.6607 2.99706 29.7779C4.11368 30.0069 5.24212 30.1739 6.37717 30.2785C7.9611 30.4278 9.67829 30.5507 11.6274 30.6539C12.713 30.7114 13.9743 30.7678 15.2858 30.7678C15.488 30.7678 15.6912 30.7664 15.8953 30.7635C17.3824 30.7424 18.7074 30.6545 19.8741 29.7863C20.0078 29.6727 20.1748 29.6061 20.3501 29.5965C20.5252 29.587 20.6986 29.6351 20.8438 29.7335C21.0596 29.8401 21.2925 29.9078 21.5319 29.9336C21.5834 29.9422 21.6347 29.9509 21.6852 29.9603C23.7224 30.3404 25.8078 30.2942 27.8244 30.2491C28.123 30.2425 28.4216 30.2363 28.7201 30.2306C29.8273 30.2108 30.5955 29.5899 30.9414 28.4347C31.0618 28.0463 31.1453 27.6474 31.1907 27.2434L31.2571 26.6042C31.4041 25.1912 31.5562 23.7313 31.6572 22.2907C31.8873 19.0068 31.9629 15.6336 31.8819 12.265C31.8658 11.6026 31.8276 10.9569 31.7683 10.3456C31.691 9.55083 31.3085 8.95654 30.662 8.62671C30.1277 8.35408 29.5222 8.04489 28.8851 7.90026C26.9511 7.46085 24.9591 7.5678 23.2013 7.6613C23.0223 7.67086 22.8374 7.67156 22.6585 7.67211C22.0628 7.67433 21.4478 7.67668 20.8506 7.99169C20.2516 6.51734 19.245 5.399 18.3359 4.4976C17.9803 4.14509 17.6226 3.79443 17.2631 3.44562C16.6981 2.89455 16.1133 2.32478 15.5516 1.7528C14.6165 0.801946 13.4136 0.480421 11.874 0.769252C11.6216 0.816485 11.3812 0.91368 11.1669 1.05513C10.9527 1.19658 10.7688 1.37943 10.6262 1.59294C10.3193 2.05337 10.2079 2.61683 10.3164 3.15942C10.3802 3.51503 10.4859 3.86186 10.6311 4.1927C10.9652 4.92066 11.3277 5.63339 11.7328 6.423C11.7838 6.52233 11.8373 6.62027 11.8909 6.71862C12.0906 7.04708 12.2414 7.40285 12.3387 7.77476C12.3143 7.78127 12.2916 7.78778 12.2703 7.79401C12.2161 7.8126 12.1597 7.82428 12.1025 7.82878C11.4238 7.83581 10.7449 7.84167 10.0662 7.84638C9.00932 7.85469 7.91662 7.86314 6.84206 7.87879C5.69776 7.89643 4.56128 8.07079 3.46433 8.39703C2.57786 8.64629 1.78214 9.14605 1.17266 9.83633C-0.0354487 11.2201 0.0113941 12.7888 1.29735 14.0317C1.30432 14.0484 1.30937 14.0659 1.31243 14.0837C1.31493 14.0944 1.31758 14.1056 1.32048 14.1177C0.691248 14.7574 0.260877 15.5657 0.0814756 16.445C-0.180619 17.6198 0.190363 18.5575 1.18375 19.2338ZM3.55256 14.7269C4.02438 14.6179 4.34898 14.3012 4.37974 13.9201C4.42129 13.4101 3.90375 13.2114 3.5947 13.0929C3.42844 13.0332 3.25846 12.9843 3.08587 12.9467C2.95884 12.9162 2.82753 12.8846 2.70299 12.8443C2.11757 12.6551 1.93636 12.3318 2.07752 11.7284C2.17901 11.2521 2.42858 10.8202 2.79051 10.4945C3.57292 9.80281 4.36601 9.45372 5.28639 9.39568L5.37808 9.38986C5.37997 9.38974 5.38186 9.38962 5.38375 9.3895C7.34909 9.26591 9.37988 9.13819 11.3818 9.32544C11.93 9.37091 12.4813 9.36376 13.0282 9.30411C13.401 9.26754 13.6456 9.15685 13.7762 8.96568C13.9009 8.78241 13.9174 8.53348 13.8248 8.20378C13.5772 7.36329 13.2839 6.5369 12.9464 5.72828C12.7888 5.33745 12.6098 4.9484 12.4366 4.57196C12.4353 4.5692 12.434 4.56644 12.4328 4.56368C12.2178 4.09697 11.9956 3.6142 11.8136 3.12728C11.6659 2.73261 11.6529 2.45666 11.7735 2.28392C11.8972 2.10646 12.1743 2.01905 12.6185 2.02446C13.422 2.02931 14.013 2.26702 14.4805 2.77251C14.9298 3.25819 15.3985 3.74068 15.8519 4.20724C16.568 4.94394 17.3083 5.7057 17.9869 6.49628C19.3289 8.05943 19.9402 9.65112 19.8571 11.3624C19.8191 12.2414 19.8298 13.1219 19.8891 13.9998C19.9125 14.6829 19.8796 15.3668 19.7911 16.0446C19.748 16.4613 19.7036 16.8921 19.6869 17.3191C19.6245 18.9145 19.5865 20.5373 19.5498 22.1069L19.5498 22.1073C19.5492 22.1319 19.5486 22.1565 19.5481 22.1811C19.5266 23.0946 19.5052 24.0081 19.4789 24.9215L19.4776 24.9603L19.4776 24.961C19.4566 25.6926 19.4348 26.449 19.3463 27.1835C19.1971 28.4214 18.7469 28.8748 17.5619 28.9801C16.642 29.0618 15.6986 29.0712 14.7864 29.0802L14.7856 29.0803C14.4352 29.0837 14.0849 29.0872 13.735 29.0941C13.3637 29.1018 12.9865 29.0998 12.621 29.0979C12.6183 29.0979 12.6156 29.0979 12.6129 29.0978C12.4651 29.097 12.317 29.0965 12.1686 29.096L12.1671 29.0725L12.1053 29.0681C11.4156 29.0172 10.7257 28.9679 10.0356 28.9202C8.25172 28.7949 6.40708 28.6651 4.59707 28.4961C3.86592 28.4278 3.13282 28.1716 2.51221 27.9302C1.98068 27.7232 1.87027 27.4953 1.99855 26.8703C2.07245 26.5072 2.19738 26.1563 2.36955 25.8283C2.60076 25.3944 2.8918 25.2085 3.31764 25.2285C3.63926 25.2289 3.95466 25.14 4.22873 24.9716C4.45037 24.8427 4.69142 24.5642 4.69447 24.3393C4.69752 24.1143 4.45523 23.825 4.23581 23.7059C3.91148 23.5484 3.56576 23.4397 3.20973 23.3829C2.6624 23.2711 2.29918 23.1572 2.18074 22.9357C2.07684 22.7418 2.12962 22.4449 2.37537 21.8413C2.744 20.9371 3.24115 20.3703 3.94071 20.0574C4.15664 19.9798 4.33919 19.83 4.45759 19.6335C4.57599 19.4369 4.62302 19.2055 4.59071 18.9784C4.55719 18.47 4.1779 18.2719 3.81136 18.1458C3.62462 18.0814 3.43123 18.0303 3.24422 17.981C3.24274 17.9806 3.24125 17.9802 3.23977 17.9798C3.04569 17.9285 2.84504 17.8754 2.65477 17.8078C2.06866 17.6 1.92155 17.3626 1.99899 16.7511C2.14957 15.565 2.62887 14.9405 3.55326 14.7265L3.55256 14.7269ZM23.7516 28.653C23.0456 28.6248 22.3421 28.5493 21.646 28.4269C20.9729 28.3161 20.9766 28.2746 21.0398 27.567C21.1571 26.2536 21.253 24.8858 21.3332 23.3855L21.371 22.6815C21.3711 22.6805 21.3711 22.6795 21.3712 22.6786C21.4655 20.934 21.5631 19.1286 21.5993 17.3519C21.6345 15.6337 21.6189 13.886 21.6038 12.1959C21.6038 12.1946 21.6038 12.1933 21.6038 12.192C21.6 11.7803 21.5966 11.3686 21.5934 10.957C21.5856 10.6451 21.5623 10.3338 21.5234 10.0242C21.5096 9.89244 21.4946 9.75723 21.4819 9.61677C22.0389 9.60074 22.596 9.57415 23.1361 9.54839C23.1422 9.54809 23.1484 9.5478 23.1546 9.5475C24.8473 9.46619 26.446 9.38944 28.0723 9.60846C28.119 9.61483 28.1657 9.6194 28.2125 9.62383C28.285 9.6309 28.3533 9.63768 28.421 9.65043C29.921 9.93524 30.1429 10.2045 30.1171 11.7033L30.1056 12.3682C30.1052 12.3966 30.1047 12.4249 30.1042 12.4533C30.0431 16.004 29.9801 19.6732 29.8652 23.2806C29.8244 24.5655 29.6676 25.87 29.5159 27.1317L29.4699 27.5152C29.3575 28.4571 29.1702 28.6415 28.2912 28.673C26.776 28.7267 25.2796 28.6943 23.7523 28.653H23.7516Z" fill="#3A353E"/>
<path d="M3.55256 14.7269C4.02438 14.6179 4.34898 14.3012 4.37974 13.9201C4.42129 13.4101 3.90375 13.2114 3.5947 13.0929C3.42844 13.0332 3.25846 12.9843 3.08587 12.9467C2.95884 12.9162 2.82753 12.8846 2.70299 12.8443C2.11757 12.6551 1.93636 12.3318 2.07752 11.7284C2.17901 11.2521 2.42858 10.8202 2.79051 10.4945C3.57292 9.80281 4.36601 9.45372 5.28639 9.39568L5.37808 9.38986L5.38375 9.3895C7.34909 9.26591 9.37988 9.13819 11.3818 9.32544C11.93 9.37091 12.4813 9.36376 13.0282 9.30411C13.401 9.26754 13.6456 9.15685 13.7762 8.96568C13.9009 8.78241 13.9174 8.53348 13.8248 8.20378C13.5772 7.36329 13.2839 6.5369 12.9464 5.72828C12.7888 5.33745 12.6098 4.9484 12.4366 4.57196L12.4328 4.56368C12.2178 4.09697 11.9956 3.6142 11.8136 3.12728C11.6659 2.73261 11.6529 2.45666 11.7735 2.28392C11.8972 2.10646 12.1743 2.01905 12.6185 2.02446C13.422 2.02931 14.013 2.26702 14.4805 2.77251C14.9298 3.25819 15.3985 3.74068 15.8519 4.20724C16.568 4.94394 17.3083 5.7057 17.9869 6.49628C19.3289 8.05943 19.9402 9.65112 19.8571 11.3624C19.8191 12.2414 19.8298 13.1219 19.8891 13.9998C19.9125 14.6829 19.8796 15.3668 19.7911 16.0446C19.748 16.4613 19.7036 16.8921 19.6869 17.3191C19.6245 18.9145 19.5865 20.5373 19.5498 22.1069L19.5498 22.1073L19.5481 22.1811C19.5266 23.0946 19.5052 24.0081 19.4789 24.9215L19.4776 24.9603L19.4776 24.961C19.4566 25.6926 19.4348 26.449 19.3463 27.1835C19.1971 28.4214 18.7469 28.8748 17.5619 28.9801C16.642 29.0618 15.6986 29.0712 14.7864 29.0802L14.7856 29.0803C14.4352 29.0837 14.0849 29.0872 13.735 29.0941C13.3637 29.1018 12.9865 29.0998 12.621 29.0979L12.6129 29.0978C12.4651 29.097 12.317 29.0965 12.1686 29.096L12.1671 29.0725L12.1053 29.0681C11.4156 29.0172 10.7257 28.9679 10.0356 28.9202C8.25172 28.7949 6.40708 28.6651 4.59707 28.4961C3.86592 28.4278 3.13282 28.1716 2.51221 27.9302C1.98068 27.7232 1.87027 27.4953 1.99855 26.8703C2.07245 26.5072 2.19738 26.1563 2.36955 25.8283C2.60076 25.3944 2.8918 25.2085 3.31764 25.2285C3.63926 25.2289 3.95466 25.14 4.22873 24.9716C4.45037 24.8427 4.69142 24.5642 4.69447 24.3393C4.69752 24.1143 4.45523 23.825 4.23581 23.7059C3.91148 23.5484 3.56576 23.4397 3.20973 23.3829C2.6624 23.2711 2.29918 23.1572 2.18074 22.9357C2.07684 22.7418 2.12962 22.4449 2.37537 21.8413C2.744 20.9371 3.24115 20.3703 3.94071 20.0574C4.15664 19.9798 4.33919 19.83 4.45759 19.6335C4.57599 19.4369 4.62302 19.2055 4.59071 18.9784C4.55719 18.47 4.1779 18.2719 3.81136 18.1458C3.62462 18.0814 3.43123 18.0303 3.24422 17.981L3.23977 17.9798C3.04569 17.9285 2.84504 17.8754 2.65477 17.8078C2.06866 17.6 1.92155 17.3626 1.99899 16.7511C2.14957 15.565 2.62887 14.9405 3.55326 14.7265L3.55256 14.7269Z" fill="#FFCFAB"/>
<path d="M23.7516 28.653C23.0456 28.6248 22.3421 28.5493 21.646 28.4269C20.9729 28.3161 20.9766 28.2746 21.0398 27.567C21.1571 26.2536 21.253 24.8858 21.3332 23.3855L21.371 22.6815L21.3712 22.6786C21.4655 20.934 21.5631 19.1286 21.5993 17.3519C21.6345 15.6337 21.6189 13.886 21.6038 12.1959L21.6038 12.192C21.6 11.7803 21.5966 11.3686 21.5934 10.957C21.5856 10.6451 21.5623 10.3338 21.5234 10.0242C21.5096 9.89244 21.4946 9.75723 21.4819 9.61677C22.0389 9.60074 22.596 9.57415 23.1361 9.54839L23.1546 9.5475C24.8473 9.46619 26.446 9.38944 28.0723 9.60846C28.119 9.61483 28.1657 9.6194 28.2125 9.62383C28.285 9.6309 28.3533 9.63768 28.421 9.65043C29.921 9.93524 30.1429 10.2045 30.1171 11.7033L30.1056 12.3682L30.1042 12.4533C30.0431 16.004 29.9801 19.6732 29.8652 23.2806C29.8244 24.5655 29.6676 25.87 29.5159 27.1317L29.4699 27.5152C29.3575 28.4571 29.1702 28.6415 28.2912 28.673C26.776 28.7267 25.2796 28.6943 23.7523 28.653H23.7516Z" fill="#C3F0D2"/>
</svg>
